<?xml version="1.0" encoding="utf-8"?>

<!DOCTYPE svg PUBLIC "-//W3C//DTD SVG 1.1//EN" "http://www.w3.org/Graphics/SVG/1.1/DTD/svg11.dtd">
<svg version="1.1" id="Layer_1" xmlns="http://www.w3.org/2000/svg" xmlns:xlink="http://www.w3.org/1999/xlink" x="0px" y="0px"
	 viewBox="0 0 735.793 1628.162" enable-background="new 0 0 735.793 1628.162" xml:space="preserve">
<path d="M704.345,836.527c-2.902-3.316-6.632-15.752-9.948-20.726c-3.32-4.974-8.703-16.992-14.508-21.966
	c-5.805-4.974-23.211-26.113-26.113-34.402c-1.763-5.032-8.527-51.594-14.878-91.867l0.039,0.203
	c-5.765-37.493-21.465-125.41-32.955-160.937c-8.422-26.031-24.174-45.27-24.377-80.051c-0.207-35.573-16.224-83.94-34.605-112.682
	c-12.378-19.357-52.198-38.963-87.151-49.901l-21.44-10.728c-4.939-3.792-21.124-14.262-24.213-29.253c0,0-2.594-9.834-0.48-18.799
	c5.013-21.256,8.418-28.555,10.763-26.206c1.576,3.136,3.92,3.92,9.397-2.349c7.905-9.028,20.448-54.321,5.485-43.846
	c0,0-1.572-10.178,0.78-13.31c2.352-3.132,7.833-20.359,5.481-25.84c5.477-7.829,0-18.007-3.913-26.62
	c2.344-19.575-18.011-29.756-28.188-31.321c-4.701-17.227-26.62-15.658-29.756-18.007c-3.129-2.348-16.442-1.568-16.442-1.568
	c-14.09-5.481-28.184,0-36.798,5.481c-19.575,0-22.707,14.094-26.624,15.658c-3.913,1.568-8.613,6.269-17.227,25.06
	c-8.613,18.787,1.564,68.902,1.564,68.902s-8.609-10.919-9.393,3.917c-0.784,14.878,9.393,40.714,16.442,43.843
	c7.049,3.136,8.613-3.129,8.613-3.129s2.27,4.872,4.498,12.904c1.057,7.343,5.687,35.241,1.674,43.85
	c-2.462,5.29-6.768,21.6-37.964,31.36c-34.952,10.938-74.777,30.544-87.155,49.901c-18.377,28.742-34.395,77.11-34.605,112.682
	c-0.203,34.781-15.951,54.02-24.369,80.051c-12.112,37.414-28.282,130.4-32.959,160.937c0,0-8.875,70.221-16.091,87.065
	c-3.71,8.668-12.382,25.169-23.523,35.487c-7.096,6.569-12.791,21.046-15.264,26.827c-2.481,5.77-15.272,35.479-13.618,40.024
	c1.806,4.981,16.171,0.436,23.819-15.163c-2.442,12.085-12.405,63.109-7.314,66.745c5.777,4.127,9.077-0.827,10.731-4.127
	c1.646-3.304,11.555-30.946,13.201-35.491c1.65-4.537-9.491,49.932,0.827,49.515c4.97-0.195,7.693-3.246,12.081-17.148
	c9.86-31.246,10.074-54.868,6.487-0.179c-0.566,8.66-0.293,14.628,4.954,14.032c5.329-0.605,6.425-2.926,14.02-31.418
	c1.42-5.348,2.551-11.789,3.043-14.777c-4.15,26.599-2.432,31.949,2.742,32.99c6.924,1.4,15.682-42.914,16.505-48.688
	c1.724-12.052,0.61-96.142,5.364-105.641c2.067-4.127,35.089-93.86,37.141-98.21c3.296-7.014,28.886-60.246,30.123-64.787
	c1.237-4.541,13.068-42.977,14.028-49.105c1.159-7.384,4.334-22.676,5.258-33.634c0.421,5.531,1.662,12.779,4.822,18.814
	c4.486,8.574-1.135,17.203-3.476,26.788c-2.122,8.683-8.602,33.013-12.179,46.078c-6.206,22.653-7.462,50.919-6.877,60.164
	c1.069,16.91,3.175,33.173,2.551,50.564c-0.495,13.766-19.399,61.292-19.399,125.033c0,35.487,9.027,87.74,16.95,109.761
	c4.954,13.755,6.819,30.747,7.716,41.182c2.629,30.622,16.548,78.378,16.602,79.848c0.823,21.455,10.314,52.261,8.664,57.215
	c-1.65,4.954-5.251,126.422-4.95,136.775c0.414,14.02,11.968,101.92,14.445,107.283c2.473,5.36,7.841,46.628,10.314,50.338
	c2.473,3.714,4.95,92.854,1.646,100.274c-3.292,7.427-5.36,35.491-11.96,42.091c-6.604,6.604-22.286,43.332-15.268,46.214
	c7.01,2.891,3.288,3.441,7.01,6.191c3.725,2.754,3.714,1.662,5.781,3.718c2.064,2.06,7.014,3.3,9.901,1.65
	c2.891-1.65,4.802,2.017,7.693,2.017c2.891,0,5.516-3.25,7.989-2.422c2.481,0.815,5.777,2.883,11.555,2.056
	c5.773-0.823,11.141,1.244,16.505-5.356c5.364-6.608,14.855-29.308,19.399-34.254c4.537-4.95,7.423-10.318,7.423-14.032
	c0-3.71-1.65-18.986-5.364-30.123c-6.417-19.258,1.741-59.12,0.414-91.196c-0.414-9.901,9.901-59.419,9.901-64.791
	c0-5.36,7.841-56.528,10.318-63.542c2.473-7.01,10.724-60.66,12.795-85.419c1.541-18.545-3.718-98.807-2.071-102.103
	c1.654-3.308,0-24.205,9.904-47.728c9.908-23.515,8.258-85.122,8.668-93.794c0.413-8.664,4.541,61.611,4.541,65.321
	c0,3.718,10.318,58.042,13.205,63.402c2.887,5.368,10.731,21.876,10.731,34.668c0,12.795,4.24,113.229,5.356,122.735
	c1.658,14.036,21.876,69.741,22.703,84.182c0.827,14.445,17.328,81.292,14.851,92.842c-2.473,11.558,9.078,53.65,5.781,68.5
	c-3.304,14.855-2.891,47.455,0.827,54.051c3.71,6.608,9.078,22.7,9.901,26.004c0.827,3.3,10.731,19.391,17.745,19.391
	c7.018,0,16.505-0.815,20.632-5.36c4.123-4.541,6.191,0,9.491,0.41c3.3,0.417,6.6-2.06,9.491-2.469
	c2.891-0.417,8.664,1.642,10.318-2.481c1.65-4.127,6.187-0.406,8.247-3.71c2.064-3.3-0.41-6.6,1.654-7.845
	c2.064-1.24,7.018-8.247-2.064-20.219c-9.078-11.968-13.201-20.632-15.264-25.169c-2.067-4.545-4.954-16.926-9.904-22.286
	c-2.579-2.797-4.958-35.487-4.541-40.024c0.41-4.544,6.6-101.097,6.6-105.641c0-4.541,9.487-52.405,9.908-76.341
	c0.41-23.932,2.06-82.528-3.308-103.16c-5.36-20.632-7.423-64.962-7.837-67.857c-0.41-2.887,2.477-66.293,5.364-70.829
	c2.891-4.541,10.825-59.77,14.913-81.272c3.378-17.784,27.75-105.938,22.224-165.614c-4.127-44.564-17.328-86.655-20.219-101.924
	s2.064-49.105,2.064-56.123c0-78.93-11.619-72.471-13.622-102.337c-0.932-13.926-6.175-15.83-1.408-29.179
	c1.346-3.772,1.935-8.102,2.11-12.269c5.304,36.818,10.848,46.903,18.264,74.048c1.237,4.541,26.823,57.773,30.123,64.787
	c0,0,20.281,52.436,25.286,65.887c3.651,9.826,17.839,38.717,17.41,55.541c-0.417,16.165-0.417,25.699-0.831,38.132
	c-0.417,12.436,2.071,43.936,4.974,51.395c2.902,7.462,7.045,38.131,12.432,37.722c6.751-0.517,7.18-7.852,5.391-32.331
	c2.485,10.361,7.853,34.153,10.361,38.549c1.658,2.898,5.664,10.22,10.224,8.98c9.197-1.381,5.565-18.076-0.277-53.747
	c0,0,8.133,39.044,9.12,41.865c1.931,5.528,6.909,21.553,14.508,16.162c8.462-6.007-2.218-51.385-3.733-60.098
	c0,0,9.534,27.771,10.778,33.575c1.162,5.434,8.289,21.549,14.921,18.233c9.156-4.576-2.071-41.447-3.729-46.425
	c-1.662-4.97-4.564-22.38-4.564-22.38s12.023,13.263,18.241,14.094c6.218,0.831,6.858-0.425,7.045-2.485
	C711.803,847.719,707.247,839.843,704.345,836.527"/>
</svg>
