<?xml version="1.0" ?>
<!-- Uploaded to: SVG Repo, www.svgrepo.com, Generator: SVG Repo Mixer Tools -->
<svg fill="#000000" width="800px" height="800px" viewBox="0 0 128 128" xmlns="http://www.w3.org/2000/svg">
<title/>
<g id="Grid">
<path d="M99.1,97.14H59.3a1.5,1.5,0,0,1-1.5-1.5V51.86a21.4,21.4,0,0,1,42.8,0v8.87c6.28-2.25,10.28-2.24,12.51,0,2.62,2.67,4.16,9.27-12.74,35.69A1.51,1.51,0,0,1,99.1,97.14Zm-38.3-3H98.28c15.39-24.2,14-29.93,12.69-31.28-.82-.83-3.39-1.76-11.3,1.45a1.54,1.54,0,0,1-1.41-.15,1.52,1.52,0,0,1-.66-1.25v-11a18.4,18.4,0,1,0-36.8,0Z"/>
<path d="M99.1,105.1H59.3a1.5,1.5,0,1,1,0-3H99.1a1.5,1.5,0,0,1,0,3Z"/>
<path d="M52.71,89.18H28.65a1.51,1.51,0,0,1-1.27-.69C10.48,62.07,12,55.47,14.64,52.8c2.23-2.27,6.23-2.28,12.51,0V43.9a21.4,21.4,0,0,1,34-17.3A1.5,1.5,0,0,1,59.38,29,18.4,18.4,0,0,0,30.15,43.9V55a1.52,1.52,0,0,1-.66,1.25,1.54,1.54,0,0,1-1.41.15c-7.91-3.21-10.48-2.28-11.3-1.45-1.32,1.35-2.7,7.08,12.69,31.28H52.71a1.5,1.5,0,1,1,0,3Z"/>
<path d="M53.33,97.14H28.46a1.5,1.5,0,1,1,0-3H53.33a1.5,1.5,0,0,1,0,3Z"/>
</g>
</svg>